<mxfile host="65bd71144e">
    <diagram id="dPMMJRdg5JLt45Wqnjq1" name="01. 銀行自動振込_概要">
        <mxGraphModel dx="1728" dy="572" grid="1" gridSize="10" guides="1" tooltips="1" connect="1" arrows="1" fold="1" page="1" pageScale="1" pageWidth="827" pageHeight="1169" math="0" shadow="0">
            <root>
                <mxCell id="0"/>
                <mxCell id="1" parent="0"/>
                <mxCell id="Xm48zaGhf7QxOMZu0G9E-1" value="" style="rounded=0;whiteSpace=wrap;html=1;strokeColor=#BABABA;" parent="1" vertex="1">
                    <mxGeometry x="30" y="20" width="560" height="320" as="geometry"/>
                </mxCell>
                <mxCell id="uZalpt71huJ9y8oAyIF0-3" style="edgeStyle=none;html=1;exitX=1;exitY=0.25;exitDx=0;exitDy=0;" parent="1" source="Xm48zaGhf7QxOMZu0G9E-3" target="uZalpt71huJ9y8oAyIF0-1" edge="1">
                    <mxGeometry relative="1" as="geometry"/>
                </mxCell>
                <mxCell id="Xm48zaGhf7QxOMZu0G9E-3" value="銀行口座A&lt;br&gt;(振込元)&lt;br&gt;" style="rounded=0;whiteSpace=wrap;html=1;fillColor=#ffe6cc;strokeColor=#d79b00;" parent="1" vertex="1">
                    <mxGeometry x="80" y="80" width="130" height="200" as="geometry"/>
                </mxCell>
                <mxCell id="uZalpt71huJ9y8oAyIF0-1" value="銀行口座B&lt;br style=&quot;border-color: var(--border-color);&quot;&gt;(振込先)" style="rounded=0;whiteSpace=wrap;html=1;fillColor=#ABFF6B;strokeColor=#97D718;" parent="1" vertex="1">
                    <mxGeometry x="400" y="90" width="120" height="80" as="geometry"/>
                </mxCell>
                <mxCell id="uZalpt71huJ9y8oAyIF0-11" style="edgeStyle=none;html=1;exitX=0.5;exitY=1;exitDx=0;exitDy=0;entryX=0.549;entryY=0.998;entryDx=0;entryDy=0;entryPerimeter=0;" parent="1" source="uZalpt71huJ9y8oAyIF0-2" target="Xm48zaGhf7QxOMZu0G9E-3" edge="1">
                    <mxGeometry relative="1" as="geometry">
                        <Array as="points">
                            <mxPoint x="460" y="300"/>
                            <mxPoint x="300" y="300"/>
                            <mxPoint x="151" y="300"/>
                        </Array>
                    </mxGeometry>
                </mxCell>
                <mxCell id="uZalpt71huJ9y8oAyIF0-2" value="銀行口座C&lt;br style=&quot;border-color: var(--border-color);&quot;&gt;(振込先)" style="rounded=0;whiteSpace=wrap;html=1;fillColor=#ABFF6B;strokeColor=#97D718;" parent="1" vertex="1">
                    <mxGeometry x="400" y="190" width="120" height="80" as="geometry"/>
                </mxCell>
                <mxCell id="uZalpt71huJ9y8oAyIF0-4" value="¥10,000 × 25回" style="text;html=1;align=center;verticalAlign=middle;resizable=0;points=[];autosize=1;strokeColor=none;fillColor=none;" parent="1" vertex="1">
                    <mxGeometry x="240" y="100" width="110" height="30" as="geometry"/>
                </mxCell>
                <mxCell id="uZalpt71huJ9y8oAyIF0-5" style="edgeStyle=none;html=1;" parent="1" edge="1">
                    <mxGeometry relative="1" as="geometry">
                        <mxPoint x="210" y="230" as="sourcePoint"/>
                        <mxPoint x="400" y="230" as="targetPoint"/>
                    </mxGeometry>
                </mxCell>
                <mxCell id="uZalpt71huJ9y8oAyIF0-6" value="¥10,000 × 25回" style="text;html=1;align=center;verticalAlign=middle;resizable=0;points=[];autosize=1;strokeColor=none;fillColor=none;" parent="1" vertex="1">
                    <mxGeometry x="240" y="200" width="110" height="30" as="geometry"/>
                </mxCell>
                <mxCell id="uZalpt71huJ9y8oAyIF0-12" value="¥250,000&amp;nbsp;" style="text;html=1;align=center;verticalAlign=middle;resizable=0;points=[];autosize=1;strokeColor=none;fillColor=none;" parent="1" vertex="1">
                    <mxGeometry x="260" y="300" width="80" height="30" as="geometry"/>
                </mxCell>
                <mxCell id="uZalpt71huJ9y8oAyIF0-13" style="edgeStyle=none;html=1;exitX=0.5;exitY=0;exitDx=0;exitDy=0;entryX=0.5;entryY=0;entryDx=0;entryDy=0;" parent="1" source="uZalpt71huJ9y8oAyIF0-1" target="Xm48zaGhf7QxOMZu0G9E-3" edge="1">
                    <mxGeometry relative="1" as="geometry">
                        <mxPoint x="454.5" y="29.999999999999886" as="sourcePoint"/>
                        <mxPoint x="145.87000000000012" y="39.60000000000002" as="targetPoint"/>
                        <Array as="points">
                            <mxPoint x="460" y="60"/>
                            <mxPoint x="294.5" y="60"/>
                            <mxPoint x="145.5" y="60"/>
                        </Array>
                    </mxGeometry>
                </mxCell>
                <mxCell id="uZalpt71huJ9y8oAyIF0-14" value="¥250,000&amp;nbsp;" style="text;html=1;align=center;verticalAlign=middle;resizable=0;points=[];autosize=1;strokeColor=none;fillColor=none;" parent="1" vertex="1">
                    <mxGeometry x="260" y="30" width="80" height="30" as="geometry"/>
                </mxCell>
                <mxCell id="21" value="¥20 × 25回" style="text;html=1;align=center;verticalAlign=middle;resizable=0;points=[];autosize=1;strokeColor=none;fillColor=none;" vertex="1" parent="1">
                    <mxGeometry x="515" y="130" width="80" height="30" as="geometry"/>
                </mxCell>
                <mxCell id="UcbOdVBFukqq93bNP44z-23" value="¥20 × 25回" style="text;html=1;align=center;verticalAlign=middle;resizable=0;points=[];autosize=1;strokeColor=none;fillColor=none;" vertex="1" parent="1">
                    <mxGeometry x="515" y="235" width="80" height="30" as="geometry"/>
                </mxCell>
                <mxCell id="f-VFc9HN9hUD1IRYAsZh-25" value="" style="shape=image;verticalLabelPosition=bottom;labelBackgroundColor=default;verticalAlign=top;aspect=fixed;imageAspect=0;image=data:image/png,iVBORw0KGgoAAAANSUhEUgAAAE4AAABJCAYAAACTrxClAAAJKUlEQVR4Ae2bSW8cRRiG+U+IE2fOXFiEACEUcUEgBGIxYg+E9QJhkRzEYrEEB3KIA0kgCkqCAwYlcRa8jeNtHE/GWZyE2DEmhEJPh3col6u3mhoLo2mpVd3VVdPVT7/f91VV11xn2lsQgeuCarUrmTa4QBG0wbXBBRIIrNZWXBtcIIHAam3FtcEFEgisFkVxV6/+FXj7tVstGNyVP6+aC5cum5kz581U/Vyyc8x+9uK8WVz6Y+1SKdDyIHAAE6ysFIjzl38v0Iy1V6Q0OJSUBct3bXbut7VHJqfFpcHZpumDlJZHPcz7/7KVBjcydaq04gQTeJh5s9v43HHD3je90xyvHzDzSxea/cnS9UuD6x+ZMGnwxmtncqECLyRwzM5XE1A9w5vM5mNvrNhXG15pcJXqKXNwcMwcHZ0ygxMzCURA6lzqykrLmC3K2jP2RQPUG989aDq23GEe6ro52V/Yts58+MsLBqCrCa80uIXFJdM/PJHAA6C9F1GcgAIvawOYrS6A3dd5UwLtnf1PJLBQHuAAudrwSoPjYYF3/ER1GcDxk7O5ZipoSunvuRsmaSsMMHe9daMBnM9EBY9yHK+WzwsCp4clSi79cSU5BYKAFE1d1dnAAJUHzAYJOBue2tiqtClwdqMGx0+aMqYquERZVCazxAzxX5ifDabIMaYsZaK8Vm7RwOH3CBYCUjStzs42AKEYoAGvCCi3DH4OeKRca2WwiAbuyMhkI9r6lHdiOt0H7hroakRIF0bZc6ABv9XwooE7e+HSsghL94T917HpJIhkKbBe3W+6fnouU2WfH33NbPr5GfPOgcfMxt5HzXs/dZiPDq331pFygdeqbko0cPgTIqvbVaHDnKU2gF6oHzPzM9tMz8CbK0B8fOhF8/r395uO7beZJ3puXbE/v+se8/aBx1bUs4MFQSe22UYFB7zzvy2YmdNzCcRTZ6+NErLUJnCmvsMcH+taBg8gPli+vJe+W2e6Dm9YBtCGFztYRAfnRjJU6PN5Nsyz9WEDOMHDr731wyOFoQnkszvvXgGPYAFAfjMmvFUBh/lmwbtS39MAB7yDw52loQkeynMDih1pGZHE2FoODnPVsIwxrQuQc6nNTjv3PhgMz/V5rYi0LQd3ZWnB9A+PN+BpgkBBZHxiyAsOiK9+e28QPAKGqzp1rGNF2taC+/OymZvpMQu1fSvgATALGuDmprYEw/N1VRQsYsBrGTjCf+3ktoaa8GOnp4+YyYlfTXVqMIFpm2ba8VjlwyB49PNc1XEueBw3EyxaAg5o9J3ol52b6G7AS4OTl7/70MulTZZOsg8ceYyDm4200cExYKdxcsib9j6edG7z4ORdLwuPEUYaOPLtSBuivKjgNC2EI6ZhGqzTsc0DU+T6lh+fLKw8hmdZ4PRiSSlXPTdaqpcSBZw9LaQpbbfRseAVibQMzxjbum1wz214nxx6pRS8psDJl9EgTTxKZW4jOY8Br0ikZWzru78vD3+nNr+392lzabHYF7NgcPgFGsJNNfEo2fsaqDwG80XMMqtMHjwmBnS/vJQgIXCklVqxkUVpcAImmZedeCTSxoBHsPCZrTtqyAKHldB+lVnfs84cHu8t5OsKg+s+vDG5QSgwNY40JjyNUUmZGLDv4zsWLIBpmp20o/uO5BtHVHAbd//bmSyiMODmmW1f5f1oymOI1dn3VCY04BDp9SkRqMAij49C7J27NxRSG4VyFbe4tGCQMDfi5uo4+t4mefgJGkGDVB7YnLt1YwQLfKFvAlTtow321zL5ZBvW4PThwsBUMBfc+fkzyZsRlLyvTyhNjXJTX91WwQOQ/bJsYBu2PmD2D34jBkFpLjh+9eGPbmlEHhqTZ4YAEjT5EhouFbjpbPXL0pGWsS9T7kyCkp6r9ZneE9uTe3B/7qt2yn8BLERdPrKFwJ25WEvg0RD2PHhcB5xPYS40nReNtIv1XjNbn0j9DDkwOWr2De0xO4Y+TV42beHFxwImiIXAUXhr3wem47M7E3DAs9+oHp5UPoUG2/l5x0UiLSqzp9zzjo+MDZmvD27Ws0ZNC4MTPKkNR4+iZA4Cg0miNhcc5agDcF3Xb6luHrwspaVBZJlFjDV5LvVS4ARPURYQbqQEkPwbYGxYyrdTF15asFiq7V4x7Z4Gy5cfG15pcMDDZ2TBA5YNR8cCiSoxac655sL3wcNMWWLhfrPwQUrLi7kWOQicCw/zcx8eMJgy+e41mSbXAUd95Sn1weM7BasDXHh8BMr76C2YsZQXDM6OtDysa3ICkJXK36VFXzfS8o1CX8y0xEIffdKW1wqYUnxeyFLapn2c/QN0Iu1IWwaeggiKS+vjucECcx0YrTTgCWL/0IlS0RZ4za6AD1acANJNEbCsboqUp+gqv+czU5UldeExxOKjT2VsxFQGfzbV/q1mcvyXUuBQX7P+rmlwAEz6eN3Xuib4M183Rf5MwJQCPU1xAoi/c83WHN1gzFfXm8mBzamr4GWevrRZk40CDngMZ9Iird1FARiw1FHmPM3HCRzpzgMv/jssG3k3gbZ/3/rE5PKWWPjAkedbgyxLykujgeNGWd0U4LnKktnagNxjymDO1E0i7T/Qtm+9PXk2FnJrdYAbbdOAKR/VhW5RwSnSChAPnNYVcQH5zvkd25Q5H/zsBnNw+13LnndoYqYRMOjr0TUBImne8trQCBsVHE/DYBrloRRgKHD4wGTlAd0OHLgBzHpn75vLoHGS9d+L4claZuD4z4DjQdxIWwYeqgIYPlBgOQda1gwHCxoH/lk2i+keG62a03MXM6FhsqF/C42uOMnBhcfDS4UC4qYECbucTDV0WqheAFzoSKJl4ADIHL4daX3dFOApwvpURrQO3fB9eUOx0I5wS8HxwG6kBR5KYgcUCrO7I4IYqjIbsoJG1nDMLl/muOXgFGmlJoCpk0yezJdjfCG+rMzXpqyHZRG3hmWMbTW7Akj2k6fnsqpnXms5OO4ueIJk+zYXGGVjbkcq1/64IoBK+RtBM9uqgKOBBAvUlJhm97UgwLkUFhuYoODDKlM1o3/+AI7zZrdVA0dD6U4AEFMkbfYTXdmH1z8dy9bzlV9VcL4GrNW8NrjAN9cG1wYXSCCwWltxbXCBBAKrtRUXCO5vIxazNwx7UBIAAAAASUVORK5CYII=;" vertex="1" parent="1">
                    <mxGeometry x="523.37" y="80" width="56.63" height="53" as="geometry"/>
                </mxCell>
                <mxCell id="f-VFc9HN9hUD1IRYAsZh-26" value="" style="shape=image;verticalLabelPosition=bottom;labelBackgroundColor=default;verticalAlign=top;aspect=fixed;imageAspect=0;image=data:image/png,iVBORw0KGgoAAAANSUhEUgAAAE4AAABJCAYAAACTrxClAAAJKUlEQVR4Ae2bSW8cRRiG+U+IE2fOXFiEACEUcUEgBGIxYg+E9QJhkRzEYrEEB3KIA0kgCkqCAwYlcRa8jeNtHE/GWZyE2DEmhEJPh3col6u3mhoLo2mpVd3VVdPVT7/f91VV11xn2lsQgeuCarUrmTa4QBG0wbXBBRIIrNZWXBtcIIHAam3FtcEFEgisFkVxV6/+FXj7tVstGNyVP6+aC5cum5kz581U/Vyyc8x+9uK8WVz6Y+1SKdDyIHAAE6ysFIjzl38v0Iy1V6Q0OJSUBct3bXbut7VHJqfFpcHZpumDlJZHPcz7/7KVBjcydaq04gQTeJh5s9v43HHD3je90xyvHzDzSxea/cnS9UuD6x+ZMGnwxmtncqECLyRwzM5XE1A9w5vM5mNvrNhXG15pcJXqKXNwcMwcHZ0ygxMzCURA6lzqykrLmC3K2jP2RQPUG989aDq23GEe6ro52V/Yts58+MsLBqCrCa80uIXFJdM/PJHAA6C9F1GcgAIvawOYrS6A3dd5UwLtnf1PJLBQHuAAudrwSoPjYYF3/ER1GcDxk7O5ZipoSunvuRsmaSsMMHe9daMBnM9EBY9yHK+WzwsCp4clSi79cSU5BYKAFE1d1dnAAJUHzAYJOBue2tiqtClwdqMGx0+aMqYquERZVCazxAzxX5ifDabIMaYsZaK8Vm7RwOH3CBYCUjStzs42AKEYoAGvCCi3DH4OeKRca2WwiAbuyMhkI9r6lHdiOt0H7hroakRIF0bZc6ABv9XwooE7e+HSsghL94T917HpJIhkKbBe3W+6fnouU2WfH33NbPr5GfPOgcfMxt5HzXs/dZiPDq331pFygdeqbko0cPgTIqvbVaHDnKU2gF6oHzPzM9tMz8CbK0B8fOhF8/r395uO7beZJ3puXbE/v+se8/aBx1bUs4MFQSe22UYFB7zzvy2YmdNzCcRTZ6+NErLUJnCmvsMcH+taBg8gPli+vJe+W2e6Dm9YBtCGFztYRAfnRjJU6PN5Nsyz9WEDOMHDr731wyOFoQnkszvvXgGPYAFAfjMmvFUBh/lmwbtS39MAB7yDw52loQkeynMDih1pGZHE2FoODnPVsIwxrQuQc6nNTjv3PhgMz/V5rYi0LQd3ZWnB9A+PN+BpgkBBZHxiyAsOiK9+e28QPAKGqzp1rGNF2taC+/OymZvpMQu1fSvgATALGuDmprYEw/N1VRQsYsBrGTjCf+3ktoaa8GOnp4+YyYlfTXVqMIFpm2ba8VjlwyB49PNc1XEueBw3EyxaAg5o9J3ol52b6G7AS4OTl7/70MulTZZOsg8ceYyDm4200cExYKdxcsib9j6edG7z4ORdLwuPEUYaOPLtSBuivKjgNC2EI6ZhGqzTsc0DU+T6lh+fLKw8hmdZ4PRiSSlXPTdaqpcSBZw9LaQpbbfRseAVibQMzxjbum1wz214nxx6pRS8psDJl9EgTTxKZW4jOY8Br0ikZWzru78vD3+nNr+392lzabHYF7NgcPgFGsJNNfEo2fsaqDwG80XMMqtMHjwmBnS/vJQgIXCklVqxkUVpcAImmZedeCTSxoBHsPCZrTtqyAKHldB+lVnfs84cHu8t5OsKg+s+vDG5QSgwNY40JjyNUUmZGLDv4zsWLIBpmp20o/uO5BtHVHAbd//bmSyiMODmmW1f5f1oymOI1dn3VCY04BDp9SkRqMAij49C7J27NxRSG4VyFbe4tGCQMDfi5uo4+t4mefgJGkGDVB7YnLt1YwQLfKFvAlTtow321zL5ZBvW4PThwsBUMBfc+fkzyZsRlLyvTyhNjXJTX91WwQOQ/bJsYBu2PmD2D34jBkFpLjh+9eGPbmlEHhqTZ4YAEjT5EhouFbjpbPXL0pGWsS9T7kyCkp6r9ZneE9uTe3B/7qt2yn8BLERdPrKFwJ25WEvg0RD2PHhcB5xPYS40nReNtIv1XjNbn0j9DDkwOWr2De0xO4Y+TV42beHFxwImiIXAUXhr3wem47M7E3DAs9+oHp5UPoUG2/l5x0UiLSqzp9zzjo+MDZmvD27Ws0ZNC4MTPKkNR4+iZA4Cg0miNhcc5agDcF3Xb6luHrwspaVBZJlFjDV5LvVS4ARPURYQbqQEkPwbYGxYyrdTF15asFiq7V4x7Z4Gy5cfG15pcMDDZ2TBA5YNR8cCiSoxac655sL3wcNMWWLhfrPwQUrLi7kWOQicCw/zcx8eMJgy+e41mSbXAUd95Sn1weM7BasDXHh8BMr76C2YsZQXDM6OtDysa3ICkJXK36VFXzfS8o1CX8y0xEIffdKW1wqYUnxeyFLapn2c/QN0Iu1IWwaeggiKS+vjucECcx0YrTTgCWL/0IlS0RZ4za6AD1acANJNEbCsboqUp+gqv+czU5UldeExxOKjT2VsxFQGfzbV/q1mcvyXUuBQX7P+rmlwAEz6eN3Xuib4M183Rf5MwJQCPU1xAoi/c83WHN1gzFfXm8mBzamr4GWevrRZk40CDngMZ9Iird1FARiw1FHmPM3HCRzpzgMv/jssG3k3gbZ/3/rE5PKWWPjAkedbgyxLykujgeNGWd0U4LnKktnagNxjymDO1E0i7T/Qtm+9PXk2FnJrdYAbbdOAKR/VhW5RwSnSChAPnNYVcQH5zvkd25Q5H/zsBnNw+13LnndoYqYRMOjr0TUBImne8trQCBsVHE/DYBrloRRgKHD4wGTlAd0OHLgBzHpn75vLoHGS9d+L4claZuD4z4DjQdxIWwYeqgIYPlBgOQda1gwHCxoH/lk2i+keG62a03MXM6FhsqF/C42uOMnBhcfDS4UC4qYECbucTDV0WqheAFzoSKJl4ADIHL4daX3dFOApwvpURrQO3fB9eUOx0I5wS8HxwG6kBR5KYgcUCrO7I4IYqjIbsoJG1nDMLl/muOXgFGmlJoCpk0yezJdjfCG+rMzXpqyHZRG3hmWMbTW7Akj2k6fnsqpnXms5OO4ueIJk+zYXGGVjbkcq1/64IoBK+RtBM9uqgKOBBAvUlJhm97UgwLkUFhuYoODDKlM1o3/+AI7zZrdVA0dD6U4AEFMkbfYTXdmH1z8dy9bzlV9VcL4GrNW8NrjAN9cG1wYXSCCwWltxbXCBBAKrtRUXCO5vIxazNwx7UBIAAAAASUVORK5CYII=;" vertex="1" parent="1">
                    <mxGeometry x="523.37" y="188.5" width="56.63" height="53" as="geometry"/>
                </mxCell>
            </root>
        </mxGraphModel>
    </diagram>
    <diagram id="BepyrQg0xPVcsIh-M2C7" name="02. 銀行自動振込_AWS構成図">
        <mxGraphModel dx="2028" dy="686" grid="1" gridSize="10" guides="1" tooltips="1" connect="1" arrows="1" fold="1" page="1" pageScale="1" pageWidth="827" pageHeight="1169" math="0" shadow="0">
            <root>
                <mxCell id="0"/>
                <mxCell id="1" parent="0"/>
                <mxCell id="z4UaXMV7KJAGXGOHQPKC-1" value="" style="rounded=0;whiteSpace=wrap;html=1;strokeColor=#E3E3E3;" parent="1" vertex="1">
                    <mxGeometry x="40" y="40" width="640" height="400" as="geometry"/>
                </mxCell>
                <mxCell id="z4UaXMV7KJAGXGOHQPKC-26" value="" style="sketch=0;points=[[0,0,0],[0.25,0,0],[0.5,0,0],[0.75,0,0],[1,0,0],[0,1,0],[0.25,1,0],[0.5,1,0],[0.75,1,0],[1,1,0],[0,0.25,0],[0,0.5,0],[0,0.75,0],[1,0.25,0],[1,0.5,0],[1,0.75,0]];outlineConnect=0;fontColor=#232F3E;gradientColor=#F78E04;gradientDirection=north;fillColor=#D05C17;strokeColor=#ffffff;dashed=0;verticalLabelPosition=bottom;verticalAlign=top;align=center;html=1;fontSize=12;fontStyle=0;aspect=fixed;shape=mxgraph.aws4.resourceIcon;resIcon=mxgraph.aws4.ecr;" parent="1" vertex="1">
                    <mxGeometry x="220" y="137.5" width="78" height="78" as="geometry"/>
                </mxCell>
                <mxCell id="z4UaXMV7KJAGXGOHQPKC-27" value="ECR" style="text;html=1;align=center;verticalAlign=middle;resizable=0;points=[];autosize=1;strokeColor=none;fillColor=none;" parent="1" vertex="1">
                    <mxGeometry x="234" y="215.5" width="50" height="30" as="geometry"/>
                </mxCell>
                <mxCell id="z4UaXMV7KJAGXGOHQPKC-28" value="" style="sketch=0;points=[[0,0,0],[0.25,0,0],[0.5,0,0],[0.75,0,0],[1,0,0],[0,1,0],[0.25,1,0],[0.5,1,0],[0.75,1,0],[1,1,0],[0,0.25,0],[0,0.5,0],[0,0.75,0],[1,0.25,0],[1,0.5,0],[1,0.75,0]];outlineConnect=0;fontColor=#232F3E;gradientColor=#F78E04;gradientDirection=north;fillColor=#D05C17;strokeColor=#ffffff;dashed=0;verticalLabelPosition=bottom;verticalAlign=top;align=center;html=1;fontSize=12;fontStyle=0;aspect=fixed;shape=mxgraph.aws4.resourceIcon;resIcon=mxgraph.aws4.lambda;" parent="1" vertex="1">
                    <mxGeometry x="382" y="137.5" width="78" height="78" as="geometry"/>
                </mxCell>
                <mxCell id="z4UaXMV7KJAGXGOHQPKC-29" value="Lambda" style="text;html=1;align=center;verticalAlign=middle;resizable=0;points=[];autosize=1;strokeColor=none;fillColor=none;" parent="1" vertex="1">
                    <mxGeometry x="386" y="215.5" width="70" height="30" as="geometry"/>
                </mxCell>
                <mxCell id="z4UaXMV7KJAGXGOHQPKC-30" value="" style="edgeStyle=orthogonalEdgeStyle;html=1;endArrow=block;elbow=vertical;startArrow=none;endFill=1;strokeColor=#545B64;rounded=0;" parent="1" source="z4UaXMV7KJAGXGOHQPKC-26" target="z4UaXMV7KJAGXGOHQPKC-28" edge="1">
                    <mxGeometry width="100" relative="1" as="geometry">
                        <mxPoint x="209" y="96.16000000000003" as="sourcePoint"/>
                        <mxPoint x="259" y="97" as="targetPoint"/>
                    </mxGeometry>
                </mxCell>
                <mxCell id="z4UaXMV7KJAGXGOHQPKC-31" value="deploy" style="edgeLabel;html=1;align=center;verticalAlign=middle;resizable=0;points=[];" parent="z4UaXMV7KJAGXGOHQPKC-30" vertex="1" connectable="0">
                    <mxGeometry x="-0.1871" relative="1" as="geometry">
                        <mxPoint as="offset"/>
                    </mxGeometry>
                </mxCell>
                <mxCell id="z4UaXMV7KJAGXGOHQPKC-32" value="EventBridge" style="text;html=1;align=center;verticalAlign=middle;resizable=0;points=[];autosize=1;strokeColor=none;fillColor=none;" parent="1" vertex="1">
                    <mxGeometry x="292" y="348" width="90" height="30" as="geometry"/>
                </mxCell>
                <mxCell id="YAGCTzeoxnFs9dbpK2Mk-12" style="edgeStyle=none;html=1;exitX=0.5;exitY=0;exitDx=0;exitDy=0;exitPerimeter=0;entryX=0;entryY=0.75;entryDx=0;entryDy=0;entryPerimeter=0;" parent="1" source="z4UaXMV7KJAGXGOHQPKC-33" target="z4UaXMV7KJAGXGOHQPKC-28" edge="1">
                    <mxGeometry relative="1" as="geometry"/>
                </mxCell>
                <mxCell id="YAGCTzeoxnFs9dbpK2Mk-13" value="trigger" style="edgeLabel;html=1;align=center;verticalAlign=middle;resizable=0;points=[];" parent="YAGCTzeoxnFs9dbpK2Mk-12" vertex="1" connectable="0">
                    <mxGeometry x="-0.1363" y="-1" relative="1" as="geometry">
                        <mxPoint y="-3" as="offset"/>
                    </mxGeometry>
                </mxCell>
                <mxCell id="z4UaXMV7KJAGXGOHQPKC-33" value="" style="sketch=0;points=[[0,0,0],[0.25,0,0],[0.5,0,0],[0.75,0,0],[1,0,0],[0,1,0],[0.25,1,0],[0.5,1,0],[0.75,1,0],[1,1,0],[0,0.25,0],[0,0.5,0],[0,0.75,0],[1,0.25,0],[1,0.5,0],[1,0.75,0]];outlineConnect=0;fontColor=#232F3E;gradientColor=#FF4F8B;gradientDirection=north;fillColor=#BC1356;strokeColor=#ffffff;dashed=0;verticalLabelPosition=bottom;verticalAlign=top;align=center;html=1;fontSize=12;fontStyle=0;aspect=fixed;shape=mxgraph.aws4.resourceIcon;resIcon=mxgraph.aws4.eventbridge;" parent="1" vertex="1">
                    <mxGeometry x="297" y="270" width="78" height="78" as="geometry"/>
                </mxCell>
                <mxCell id="z4UaXMV7KJAGXGOHQPKC-37" value="" style="sketch=0;outlineConnect=0;fontColor=#232F3E;gradientColor=none;fillColor=#232F3D;strokeColor=none;dashed=0;verticalLabelPosition=bottom;verticalAlign=top;align=center;html=1;fontSize=12;fontStyle=0;aspect=fixed;pointerEvents=1;shape=mxgraph.aws4.user;" parent="1" vertex="1">
                    <mxGeometry x="50" y="154.5" width="44" height="44" as="geometry"/>
                </mxCell>
                <mxCell id="z4UaXMV7KJAGXGOHQPKC-38" value="" style="edgeStyle=orthogonalEdgeStyle;html=1;endArrow=block;elbow=vertical;startArrow=none;endFill=1;strokeColor=#545B64;rounded=0;" parent="1" source="z4UaXMV7KJAGXGOHQPKC-37" target="z4UaXMV7KJAGXGOHQPKC-26" edge="1">
                    <mxGeometry width="100" relative="1" as="geometry">
                        <mxPoint x="94" y="184.36" as="sourcePoint"/>
                        <mxPoint x="194" y="184.36" as="targetPoint"/>
                    </mxGeometry>
                </mxCell>
                <mxCell id="z4UaXMV7KJAGXGOHQPKC-39" value="push" style="edgeLabel;html=1;align=center;verticalAlign=middle;resizable=0;points=[];" parent="z4UaXMV7KJAGXGOHQPKC-38" vertex="1" connectable="0">
                    <mxGeometry x="-0.1272" y="-1" relative="1" as="geometry">
                        <mxPoint y="-2" as="offset"/>
                    </mxGeometry>
                </mxCell>
                <mxCell id="z4UaXMV7KJAGXGOHQPKC-40" value="" style="shape=mxgraph.signs.travel.bank;html=1;pointerEvents=1;fillColor=#000000;strokeColor=none;verticalLabelPosition=bottom;verticalAlign=top;align=center;" parent="1" vertex="1">
                    <mxGeometry x="600" y="120.5" width="64.5" height="86" as="geometry"/>
                </mxCell>
                <mxCell id="z4UaXMV7KJAGXGOHQPKC-43" value="銀行A" style="text;html=1;align=center;verticalAlign=middle;resizable=0;points=[];autosize=1;strokeColor=none;fillColor=none;" parent="1" vertex="1">
                    <mxGeometry x="600.25" y="208.5" width="60" height="30" as="geometry"/>
                </mxCell>
                <mxCell id="z4UaXMV7KJAGXGOHQPKC-44" value="AWS Cloud" style="points=[[0,0],[0.25,0],[0.5,0],[0.75,0],[1,0],[1,0.25],[1,0.5],[1,0.75],[1,1],[0.75,1],[0.5,1],[0.25,1],[0,1],[0,0.75],[0,0.5],[0,0.25]];outlineConnect=0;gradientColor=none;html=1;whiteSpace=wrap;fontSize=12;fontStyle=0;container=1;pointerEvents=0;collapsible=0;recursiveResize=0;shape=mxgraph.aws4.group;grIcon=mxgraph.aws4.group_aws_cloud_alt;strokeColor=#232F3E;fillColor=none;verticalAlign=top;align=left;spacingLeft=30;fontColor=#232F3E;dashed=0;" parent="1" vertex="1">
                    <mxGeometry x="129" y="80" width="420" height="320" as="geometry"/>
                </mxCell>
                <mxCell id="YAGCTzeoxnFs9dbpK2Mk-9" value="" style="edgeStyle=orthogonalEdgeStyle;html=1;endArrow=block;elbow=vertical;startArrow=none;endFill=1;strokeColor=#545B64;rounded=0;entryX=0.03;entryY=0.65;entryDx=0;entryDy=0;entryPerimeter=0;" parent="1" source="z4UaXMV7KJAGXGOHQPKC-28" target="z4UaXMV7KJAGXGOHQPKC-40" edge="1">
                    <mxGeometry width="100" relative="1" as="geometry">
                        <mxPoint x="480" y="176.20999999999998" as="sourcePoint"/>
                        <mxPoint x="580" y="176.20999999999998" as="targetPoint"/>
                    </mxGeometry>
                </mxCell>
                <mxCell id="YAGCTzeoxnFs9dbpK2Mk-10" value="処理実行" style="edgeLabel;html=1;align=center;verticalAlign=middle;resizable=0;points=[];" parent="YAGCTzeoxnFs9dbpK2Mk-9" vertex="1" connectable="0">
                    <mxGeometry x="-0.1693" relative="1" as="geometry">
                        <mxPoint x="2" as="offset"/>
                    </mxGeometry>
                </mxCell>
            </root>
        </mxGraphModel>
    </diagram>
    <diagram id="bKOAG_Rpd42CqfAav-uh" name="ページ1">
        <mxGraphModel dx="794" dy="774" grid="1" gridSize="10" guides="1" tooltips="1" connect="1" arrows="1" fold="1" page="1" pageScale="1" pageWidth="827" pageHeight="1169" background="#ffffff" math="0" shadow="1">
            <root>
                <mxCell id="0"/>
                <mxCell id="1" parent="0"/>
                <mxCell id="90" value="" style="rounded=0;whiteSpace=wrap;html=1;" parent="1" vertex="1">
                    <mxGeometry x="40" y="40" width="400" height="290" as="geometry"/>
                </mxCell>
                <mxCell id="68" style="edgeStyle=none;html=1;exitX=0.5;exitY=1;exitDx=0;exitDy=0;entryX=0.5;entryY=0;entryDx=0;entryDy=0;" parent="1" source="61" target="66" edge="1">
                    <mxGeometry relative="1" as="geometry">
                        <Array as="points">
                            <mxPoint x="120" y="130"/>
                            <mxPoint x="240" y="130"/>
                        </Array>
                    </mxGeometry>
                </mxCell>
                <mxCell id="61" value="機種1" style="rounded=0;whiteSpace=wrap;html=1;fillColor=#ffe6cc;strokeColor=#d79b00;" parent="1" vertex="1">
                    <mxGeometry x="80" y="80" width="80" height="30" as="geometry"/>
                </mxCell>
                <mxCell id="69" style="edgeStyle=none;html=1;exitX=0.5;exitY=1;exitDx=0;exitDy=0;entryX=0.5;entryY=0;entryDx=0;entryDy=0;" parent="1" source="62" target="66" edge="1">
                    <mxGeometry relative="1" as="geometry"/>
                </mxCell>
                <mxCell id="62" value="機種2" style="rounded=0;whiteSpace=wrap;html=1;fillColor=#ffe6cc;strokeColor=#d79b00;" parent="1" vertex="1">
                    <mxGeometry x="200" y="80" width="80" height="30" as="geometry"/>
                </mxCell>
                <mxCell id="70" style="edgeStyle=none;html=1;exitX=0.5;exitY=1;exitDx=0;exitDy=0;entryX=0.5;entryY=0;entryDx=0;entryDy=0;" parent="1" source="65" target="66" edge="1">
                    <mxGeometry relative="1" as="geometry">
                        <Array as="points">
                            <mxPoint x="360" y="130"/>
                            <mxPoint x="240" y="130"/>
                        </Array>
                    </mxGeometry>
                </mxCell>
                <mxCell id="65" value="機種3" style="rounded=0;whiteSpace=wrap;html=1;fillColor=#ffe6cc;strokeColor=#d79b00;" parent="1" vertex="1">
                    <mxGeometry x="320" y="80" width="80" height="30" as="geometry"/>
                </mxCell>
                <mxCell id="66" value="TelnetSession" style="rounded=0;whiteSpace=wrap;html=1;fillColor=#f8cecc;strokeColor=#b85450;" parent="1" vertex="1">
                    <mxGeometry x="180" y="160" width="120" height="30" as="geometry"/>
                </mxCell>
                <mxCell id="88" value="&lt;div style=&quot;&quot;&gt;・全機種が使用する&lt;/div&gt;&lt;div style=&quot;&quot;&gt;・機種特有の処理が入っている&lt;/div&gt;&lt;div style=&quot;&quot;&gt;&lt;span style=&quot;background-color: initial;&quot;&gt;・機種追加により修正作業が発生する&lt;/span&gt;&lt;/div&gt;" style="shape=note;whiteSpace=wrap;html=1;backgroundOutline=1;darkOpacity=0.05;fillColor=#f5f5f5;fontColor=#333333;strokeColor=#666666;align=left;verticalAlign=top;" parent="1" vertex="1">
                    <mxGeometry x="140" y="240" width="226" height="60" as="geometry"/>
                </mxCell>
                <mxCell id="89" value="" style="shape=flexArrow;endArrow=classic;html=1;" parent="1" edge="1">
                    <mxGeometry width="50" height="50" relative="1" as="geometry">
                        <mxPoint x="239.71" y="200" as="sourcePoint"/>
                        <mxPoint x="239.71" y="230" as="targetPoint"/>
                    </mxGeometry>
                </mxCell>
            </root>
        </mxGraphModel>
    </diagram>
</mxfile>